<svg xmlns="http://www.w3.org/2000/svg" x="0px" y="0px" width="20" height="20" fill="white" viewBox="0 0 32 32">
<path d="M 3 3 L 3 19 L 6 19 L 6 17 L 5 17 L 5 5 L 17 5 L 17 13 L 13 13 C 12.636719 13 12.277344 12.867188 11.9375 12.6875 C 12.117188 12.492188 12.289063 12.289063 12.4375 12.09375 C 13.082031 11.25 13.429688 10.53125 13.65625 10 L 15 10 L 15 8 L 12 8 L 12 7 L 10 7 L 10 8 L 7 8 L 7 10 L 11.4375 10 C 11.28125 10.269531 11.09375 10.582031 10.84375 10.90625 C 10.71875 11.066406 10.578125 11.222656 10.4375 11.375 C 10.074219 10.910156 9.875 10.53125 9.875 10.53125 L 8.125 11.46875 C 8.125 11.46875 8.375 11.976563 8.84375 12.59375 C 8.308594 12.84375 7.703125 13 7 13 L 7 15 C 8.300781 15 9.398438 14.597656 10.3125 14.03125 C 11.03125 14.566406 11.917969 15 13 15 L 13 17 L 11 17 L 11 19 L 13 19 L 13 21 L 15 21 L 15 15 L 27 15 L 27 27 L 15 27 L 15 26 L 13 26 L 13 29 L 29 29 L 29 13 L 19 13 L 19 3 Z M 8.46875 16 L 7 17 L 7 22 L 10 25 L 15 25 L 16 23.46875 L 15 22 L 10 22 L 10 17 Z M 20.21875 17 L 20 17.6875 L 18.0625 23.6875 L 18 23.84375 L 18 25 L 20 25 L 20 24.125 L 20.03125 24 L 21.96875 24 L 22 24.125 L 22 25 L 24 25 L 24 23.84375 L 23.9375 23.6875 L 22 17.6875 L 21.78125 17 Z M 21 21.0625 L 21.3125 22 L 20.6875 22 Z"></path>
</svg>